<?xml version="1.0"?>
<svg xmlns="http://www.w3.org/2000/svg" xmlns:xlink="http://www.w3.org/1999/xlink" xmlns:svgjs="http://svgjs.com/svgjs" version="1.1" width="512" height="512" x="0" y="0" viewBox="0 0 512 512.00039" style="enable-background:new 0 0 512 512" xml:space="preserve" class=""><g><path xmlns="http://www.w3.org/2000/svg" d="m324.992188 401.886719c-2.5625 0-5.078126.191406-7.550782.53125l-46.988281-107.445313c51.84375-24.945312 87.71875-78.050781 87.71875-139.394531v-14.65625c0-8.28125-6.714844-15-15-15h-278.660156c-8.28125 0-15 6.71875-15 15v14.65625.039063h-34.511719c-8.285156 0-15 6.714843-15 15 0 8.28125 6.714844 15 15 15h37.449219c2.144531 11.363281 5.390625 20.175781 5.636719 20.757812 14.027343 40.246094 44.230468 72.960938 82.777343 90.285156l-75.597656 172.863282c-3.320313 7.589843.144531 16.433593 7.730469 19.753906 1.957031.855468 3.996094 1.261718 6.003906 1.261718 5.78125 0 11.289062-3.359374 13.75-8.992187l36.914062-84.40625h152.726563l7.601563 17.382813c-12.1875 10.105468-19.964844 25.371093-19.964844 42.417968 0 30.359375 24.65625 55.058594 54.96875 55.058594 30.308594 0 54.96875-24.699219 54.96875-55.058594s-24.664063-55.054687-54.972656-55.054687zm-245.480469-245.964844h248.660156c-.03125 10.195313-1.296875 20.097656-3.640625 29.582031h-241.378906c-2.34375-9.484375-3.613282-19.386718-3.640625-29.582031zm15.367187 59.582031h217.925782c-21.179688 38.488282-62.078126 64.621094-108.960938 64.621094s-87.785156-26.132812-108.964844-64.621094zm47.90625 151.636719 26.628906-60.894531c11.074219 2.535156 22.597657 3.878906 34.425782 3.878906 13.246094 0 26.105468-1.679688 38.382812-4.835938l27.046875 61.851563zm182.207032 114.859375c-13.765626 0-24.964844-11.242188-24.964844-25.058594s11.199218-25.054687 24.964844-25.054687c13.769531 0 24.96875 11.238281 24.96875 25.054687s-11.199219 25.058594-24.96875 25.058594zm0 0" fill="#ffffff" data-original="#000000" style="" class=""/><path xmlns="http://www.w3.org/2000/svg" d="m188.417969 65.53125c2.667969 5.152344 7.902343 8.105469 13.328125 8.105469 2.324218 0 4.683594-.542969 6.886718-1.683594 7.355469-3.8125 10.230469-12.863281 6.421876-20.21875l-2.671876-5.160156 6.089844-6.644531c3.839844-4.195313 4.980469-10.199219 2.941406-15.507813l-5.675781-14.792969c-2.96875-7.734375-11.644531-11.59375-19.375-8.628906-7.734375 2.964844-11.601562 11.640625-8.632812 19.375l2.351562 6.132812-6.898437 7.527344c-4.25 4.644532-5.152344 11.441406-2.257813 17.03125zm0 0" fill="#ffffff" data-original="#000000" style="" class=""/><path xmlns="http://www.w3.org/2000/svg" d="m107.402344 88.527344c2.667968 5.152344 7.90625 8.105468 13.332031 8.105468 2.320313 0 4.679687-.539062 6.886719-1.683593 7.355468-3.808594 10.230468-12.859375 6.421875-20.21875l-2.671875-5.160157 6.085937-6.644531c3.84375-4.191406 4.980469-10.195312 2.945313-15.503906l-5.675782-14.792969c-2.96875-7.738281-11.644531-11.601562-19.378906-8.632812s-11.597656 11.644531-8.632812 19.378906l2.355468 6.128906-6.898437 7.527344c-4.253906 4.644531-5.152344 11.445312-2.261719 17.03125zm0 0" fill="#ffffff" data-original="#000000" style="" class=""/><path xmlns="http://www.w3.org/2000/svg" d="m269.429688 88.527344c2.667968 5.152344 7.902343 8.105468 13.332031 8.105468 2.320312 0 4.679687-.539062 6.886719-1.683593 7.355468-3.808594 10.230468-12.859375 6.417968-20.21875l-2.671875-5.160157 6.089844-6.644531c3.839844-4.191406 4.980469-10.195312 2.945313-15.503906l-5.675782-14.792969c-2.96875-7.738281-11.648437-11.601562-19.378906-8.632812-7.734375 2.96875-11.597656 11.644531-8.632812 19.378906l2.351562 6.128906-6.898438 7.527344c-4.25 4.644531-5.152343 11.445312-2.257812 17.03125zm0 0" fill="#ffffff" data-original="#000000" style="" class=""/></g></svg>
