<?xml version="1.0"?>
<svg xmlns="http://www.w3.org/2000/svg" xmlns:xlink="http://www.w3.org/1999/xlink" xmlns:svgjs="http://svgjs.com/svgjs" version="1.1" width="512" height="512" x="0" y="0" viewBox="0 0 64 64" style="enable-background:new 0 0 512 512" xml:space="preserve" class=""><g transform="matrix(-0.68,0,0,-0.68,53.759690480232294,53.75999519348153)"><g xmlns="http://www.w3.org/2000/svg"><path d="m58.464 1c-1.212 0-2.351.472-3.207 1.328l-21.964 21.965-21.263 21.263c-3.883 3.883-7.097 8.343-9.553 13.254l-1.372 2.743c-.168.337-.133.739.09 1.041.191.258.491.406.805.406.054 0 .109-.005.165-.014 8.057-1.343 15.369-5.105 21.145-10.882l18.897-18.897c.391-.391.391-1.023 0-1.414l-1.793-1.793 1.232-1.232c.861-.86 1.354-2.051 1.354-3.268 0-.69.28-1.366.768-1.854 1.192-1.191 2.588-2.112 4.149-2.736l.167-.066c1.644-.657 3.112-1.625 4.365-2.878l1.504-1.506c1.597-1.598 2.756-3.593 3.35-5.771.271-.995 1.18-1.689 2.211-1.689 1.922 0 3.486-1.563 3.486-3.486 0-2.49-2.025-4.514-4.536-4.514zm-36.568 49.69c-5.006 5.006-11.228 8.418-18.093 9.941l.464-.928c2.359-4.719 5.447-9.004 9.178-12.734l20.555-20.555 6.086 6.086zm37.618-43.69c-1.93 0-3.633 1.301-4.141 3.163-.502 1.843-1.482 3.531-2.834 4.883l-1.504 1.506c-1.06 1.06-2.303 1.879-3.692 2.435l-.167.066c-1.815.726-3.438 1.796-4.822 3.18-.861.859-1.354 2.05-1.354 3.267 0 .69-.28 1.366-.768 1.854l-1.232 1.232-3.586-3.586 21.257-21.258c.479-.478 1.116-.742 1.815-.742 1.386 0 2.514 1.128 2.514 2.514 0 .819-.667 1.486-1.486 1.486z" fill="#ffffff" data-original="#000000" style="" class=""/><path d="m57 4h2v2h-2z" fill="#ffffff" data-original="#000000" style="" class=""/></g></g></svg>
