<?xml version="1.0"?>
<svg xmlns="http://www.w3.org/2000/svg" xmlns:xlink="http://www.w3.org/1999/xlink" xmlns:svgjs="http://svgjs.com/svgjs" version="1.1" width="512" height="512" x="0" y="0" viewBox="0 0 512 512" style="enable-background:new 0 0 512 512" xml:space="preserve"><g><g xmlns="http://www.w3.org/2000/svg" id="Out_line" data-name="Out line"><path d="m101.61914 387.06641c-9.22559-17.30274-7.07129-39.64453 6.0669-62.90918 13.792-24.42188 37.792-46.62207 67.5791-62.50879 41.64013-22.21192 88.3872-27.835 119.09472-14.32617l6.44336-14.64454c-35.56689-15.64941-86.55664-9.95605-133.06787 14.85352-32.43799 17.30075-58.71191 41.71975-73.98144 68.75875-15.92286 28.19531-18.14356 56.00488-6.25293 78.30371z" fill="#ffffff" data-original="#000000" style=""/><circle cx="296" cy="200" r="8" fill="#ffffff" data-original="#000000" style=""/><circle cx="456" cy="64" r="8" fill="#ffffff" data-original="#000000" style=""/><circle cx="328" cy="216" r="8" fill="#ffffff" data-original="#000000" style=""/><path d="m454.05908 24a41.666 41.666 0 0 0 -29.65674 12.28418l-24.48534 24.48535a89.76676 89.76676 0 0 0 -21.57666 34.91113l-3.85934 11.57813a73.68375 73.68375 0 0 1 -17.71147 28.65721 72.90108 72.90108 0 0 1 -39.78853 20.47658l-20.79456 3.46557a158.61069 158.61069 0 0 0 -27.97644-5.614c-42.1582-4.70117-89.668 5.25-133.772 28.03418-44.1045 22.78417-79.71632 55.76757-100.27589 92.87401-21.14111 38.15528-23.98389 76.20313-8.00537 107.13379a90.60309 90.60309 0 0 0 15.06177 21.07715l13.68676 15.61914a153.97958 153.97958 0 0 0 134.99073 51.34278l14.40771-1.80079a210.94145 210.94145 0 0 0 156.98629-104.6582 154.03407 154.03407 0 0 0 6.71-139.69678v-9.90966a65.05552 65.05552 0 0 1 40.89307-60.40137l12.15576-4.86133a80.617 80.617 0 0 0 27.21094-17.94238l35.45605-35.45606a41.94165 41.94165 0 0 0 -29.65674-71.59863zm-405.90185 258.90625c19.04589-34.374 52.29541-65.0625 93.62451-86.41309 34.69433-17.92285 71.45947-27.39355 105.47461-27.39355a172.84281 172.84281 0 0 1 19.17871 1.0459c33.93042 3.7876 60.137 17.56567 74.89184 39.11426.34949.50878.68311 1.02636 1.02539 1.5393 1.31189 2.0232 2.535 4.10547 3.64722 6.25855 13.44434 26.02441 10.67969 58.71093-7.78515 92.03613-19.04541 34.374-52.29493 65.0625-93.624 86.41309-41.32763 21.34961-85.59228 30.71-124.65381 26.34765-37.86377-4.22656-66.1206-20.88672-79.56494-46.91211-13.44388-26.02438-10.67874-58.70996 7.78562-92.03613zm299.24121 73.02246a194.94589 194.94589 0 0 1 -145.0791 96.71875l-14.40772 1.80078a137.91079 137.91079 0 0 1 -91.29437-20.54077 163.21278 163.21278 0 0 0 21.54437 3.84839 188.44326 188.44326 0 0 0 20.89111 1.14062c36.5835 0 75.9292-10.085 112.88135-29.1748 44.10449-22.78418 79.71631-55.76758 100.27588-92.874a154.66128 154.66128 0 0 0 13.34937-31.56885 137.87567 137.87567 0 0 1 -18.16089 70.64988zm125.0039-271.64453-35.45605 35.456a64.71034 64.71034 0 0 1 -21.83936 14.40137l-12.15576 4.86133a81.10892 81.10892 0 0 0 -49.46045 59.7019 96.75442 96.75442 0 0 0 -30.23047-27.218 88.76909 88.76909 0 0 0 44.82275-24.25631 89.76676 89.76676 0 0 0 21.57666-34.91113l3.85937-11.57813a73.68375 73.68375 0 0 1 17.71144-28.65721l24.48535-24.48535a25.94094 25.94094 0 0 1 36.68652 36.68555z" fill="#ffffff" data-original="#000000" style=""/></g></g></svg>
